<svg id="visual" viewBox="0 0 900 600" width="900" height="600" xmlns="http://www.w3.org/2000/svg" xmlns:xlink="http://www.w3.org/1999/xlink" version="1.1"><path d="M0 25L16.7 25C33.3 25 66.7 25 100 24C133.3 23 166.7 21 200 19C233.3 17 266.7 15 300 17C333.3 19 366.7 25 400 28C433.3 31 466.7 31 500 31C533.3 31 566.7 31 600 28C633.3 25 666.7 19 700 18C733.3 17 766.7 21 800 22C833.3 23 866.7 21 883.3 20L900 19L900 0L883.3 0C866.7 0 833.3 0 800 0C766.7 0 733.3 0 700 0C666.7 0 633.3 0 600 0C566.7 0 533.3 0 500 0C466.7 0 433.3 0 400 0C366.7 0 333.3 0 300 0C266.7 0 233.3 0 200 0C166.7 0 133.3 0 100 0C66.7 0 33.3 0 16.7 0L0 0Z" fill="#6198ff"></path><path d="M0 121L16.7 127C33.3 133 66.7 145 100 138C133.3 131 166.7 105 200 108C233.3 111 266.7 143 300 155C333.3 167 366.7 159 400 155C433.3 151 466.7 151 500 152C533.3 153 566.7 155 600 151C633.3 147 666.7 137 700 137C733.3 137 766.7 147 800 139C833.3 131 866.7 105 883.3 92L900 79L900 17L883.3 18C866.7 19 833.3 21 800 20C766.7 19 733.3 15 700 16C666.7 17 633.3 23 600 26C566.7 29 533.3 29 500 29C466.7 29 433.3 29 400 26C366.7 23 333.3 17 300 15C266.7 13 233.3 15 200 17C166.7 19 133.3 21 100 22C66.7 23 33.3 23 16.7 23L0 23Z" fill="#548fff"></path><path d="M0 139L16.7 145C33.3 151 66.7 163 100 159C133.3 155 166.7 135 200 139C233.3 143 266.7 171 300 182C333.3 193 366.7 187 400 185C433.3 183 466.7 185 500 187C533.3 189 566.7 191 600 185C633.3 179 666.7 165 700 165C733.3 165 766.7 179 800 171C833.3 163 866.7 133 883.3 118L900 103L900 77L883.3 90C866.7 103 833.3 129 800 137C766.7 145 733.3 135 700 135C666.7 135 633.3 145 600 149C566.7 153 533.3 151 500 150C466.7 149 433.3 149 400 153C366.7 157 333.3 165 300 153C266.7 141 233.3 109 200 106C166.7 103 133.3 129 100 136C66.7 143 33.3 131 16.7 125L0 119Z" fill="#4686ff"></path><path d="M0 217L16.7 219C33.3 221 66.7 225 100 220C133.3 215 166.7 201 200 206C233.3 211 266.7 235 300 243C333.3 251 366.7 243 400 242C433.3 241 466.7 247 500 251C533.3 255 566.7 257 600 252C633.3 247 666.7 235 700 232C733.3 229 766.7 235 800 227C833.3 219 866.7 197 883.3 186L900 175L900 101L883.3 116C866.7 131 833.3 161 800 169C766.7 177 733.3 163 700 163C666.7 163 633.3 177 600 183C566.7 189 533.3 187 500 185C466.7 183 433.3 181 400 183C366.7 185 333.3 191 300 180C266.7 169 233.3 141 200 137C166.7 133 133.3 153 100 157C66.7 161 33.3 149 16.7 143L0 137Z" fill="#387dff"></path><path d="M0 301L16.7 297C33.3 293 66.7 285 100 281C133.3 277 166.7 277 200 284C233.3 291 266.7 305 300 307C333.3 309 366.7 299 400 295C433.3 291 466.7 293 500 301C533.3 309 566.7 323 600 320C633.3 317 666.7 297 700 296C733.3 295 766.7 313 800 311C833.3 309 866.7 287 883.3 276L900 265L900 173L883.3 184C866.7 195 833.3 217 800 225C766.7 233 733.3 227 700 230C666.7 233 633.3 245 600 250C566.7 255 533.3 253 500 249C466.7 245 433.3 239 400 240C366.7 241 333.3 249 300 241C266.7 233 233.3 209 200 204C166.7 199 133.3 213 100 218C66.7 223 33.3 219 16.7 217L0 215Z" fill="#2874ff"></path><path d="M0 331L16.7 326C33.3 321 66.7 311 100 305C133.3 299 166.7 297 200 305C233.3 313 266.7 331 300 334C333.3 337 366.7 325 400 321C433.3 317 466.7 321 500 331C533.3 341 566.7 357 600 356C633.3 355 666.7 337 700 336C733.3 335 766.7 351 800 345C833.3 339 866.7 311 883.3 297L900 283L900 263L883.3 274C866.7 285 833.3 307 800 309C766.7 311 733.3 293 700 294C666.7 295 633.3 315 600 318C566.7 321 533.3 307 500 299C466.7 291 433.3 289 400 293C366.7 297 333.3 307 300 305C266.7 303 233.3 289 200 282C166.7 275 133.3 275 100 279C66.7 283 33.3 291 16.7 295L0 299Z" fill="#126bff"></path><path d="M0 343L16.7 339C33.3 335 66.7 327 100 323C133.3 319 166.7 319 200 327C233.3 335 266.7 351 300 352C333.3 353 366.7 339 400 334C433.3 329 466.7 333 500 344C533.3 355 566.7 373 600 375C633.3 377 666.7 363 700 364C733.3 365 766.7 381 800 373C833.3 365 866.7 333 883.3 317L900 301L900 281L883.3 295C866.7 309 833.3 337 800 343C766.7 349 733.3 333 700 334C666.7 335 633.3 353 600 354C566.7 355 533.3 339 500 329C466.7 319 433.3 315 400 319C366.7 323 333.3 335 300 332C266.7 329 233.3 311 200 303C166.7 295 133.3 297 100 303C66.7 309 33.3 319 16.7 324L0 329Z" fill="#0064f9"></path><path d="M0 373L16.7 372C33.3 371 66.7 369 100 367C133.3 365 166.7 363 200 367C233.3 371 266.7 381 300 383C333.3 385 366.7 379 400 376C433.3 373 466.7 373 500 382C533.3 391 566.7 409 600 410C633.3 411 666.7 395 700 396C733.3 397 766.7 415 800 409C833.3 403 866.7 373 883.3 358L900 343L900 299L883.3 315C866.7 331 833.3 363 800 371C766.7 379 733.3 363 700 362C666.7 361 633.3 375 600 373C566.7 371 533.3 353 500 342C466.7 331 433.3 327 400 332C366.7 337 333.3 351 300 350C266.7 349 233.3 333 200 325C166.7 317 133.3 317 100 321C66.7 325 33.3 333 16.7 337L0 341Z" fill="#005fec"></path><path d="M0 403L16.7 401C33.3 399 66.7 395 100 392C133.3 389 166.7 387 200 391C233.3 395 266.7 405 300 409C333.3 413 366.7 411 400 407C433.3 403 466.7 397 500 406C533.3 415 566.7 439 600 443C633.3 447 666.7 431 700 430C733.3 429 766.7 443 800 437C833.3 431 866.7 405 883.3 392L900 379L900 341L883.3 356C866.7 371 833.3 401 800 407C766.7 413 733.3 395 700 394C666.7 393 633.3 409 600 408C566.7 407 533.3 389 500 380C466.7 371 433.3 371 400 374C366.7 377 333.3 383 300 381C266.7 379 233.3 369 200 365C166.7 361 133.3 363 100 365C66.7 367 33.3 369 16.7 370L0 371Z" fill="#005ae0"></path><path d="M0 511L16.7 512C33.3 513 66.7 515 100 516C133.3 517 166.7 517 200 513C233.3 509 266.7 501 300 502C333.3 503 366.7 513 400 515C433.3 517 466.7 511 500 512C533.3 513 566.7 521 600 526C633.3 531 666.7 533 700 536C733.3 539 766.7 543 800 541C833.3 539 866.7 531 883.3 527L900 523L900 377L883.3 390C866.7 403 833.3 429 800 435C766.7 441 733.3 427 700 428C666.7 429 633.3 445 600 441C566.7 437 533.3 413 500 404C466.7 395 433.3 401 400 405C366.7 409 333.3 411 300 407C266.7 403 233.3 393 200 389C166.7 385 133.3 387 100 390C66.7 393 33.3 397 16.7 399L0 401Z" fill="#0055d3"></path><path d="M0 565L16.7 564C33.3 563 66.7 561 100 559C133.3 557 166.7 555 200 552C233.3 549 266.7 545 300 544C333.3 543 366.7 545 400 548C433.3 551 466.7 555 500 560C533.3 565 566.7 571 600 572C633.3 573 666.7 569 700 569C733.3 569 766.7 573 800 570C833.3 567 866.7 557 883.3 552L900 547L900 521L883.3 525C866.7 529 833.3 537 800 539C766.7 541 733.3 537 700 534C666.7 531 633.3 529 600 524C566.7 519 533.3 511 500 510C466.7 509 433.3 515 400 513C366.7 511 333.3 501 300 500C266.7 499 233.3 507 200 511C166.7 515 133.3 515 100 514C66.7 513 33.3 511 16.7 510L0 509Z" fill="#0051c7"></path><path d="M0 601L16.7 601C33.3 601 66.7 601 100 601C133.3 601 166.7 601 200 601C233.3 601 266.7 601 300 601C333.3 601 366.7 601 400 601C433.3 601 466.7 601 500 601C533.3 601 566.7 601 600 601C633.3 601 666.7 601 700 601C733.3 601 766.7 601 800 601C833.3 601 866.7 601 883.3 601L900 601L900 545L883.3 550C866.7 555 833.3 565 800 568C766.7 571 733.3 567 700 567C666.7 567 633.3 571 600 570C566.7 569 533.3 563 500 558C466.7 553 433.3 549 400 546C366.7 543 333.3 541 300 542C266.7 543 233.3 547 200 550C166.7 553 133.3 555 100 557C66.7 559 33.3 561 16.7 562L0 563Z" fill="#004cbb"></path></svg>